<?xml version="1.0" encoding="UTF-8" standalone="no"?>
<!-- Created with Inkscape (http://www.inkscape.org/) -->

<svg
   xmlns:osb="http://www.openswatchbook.org/uri/2009/osb"
   xmlns:dc="http://purl.org/dc/elements/1.1/"
   xmlns:cc="http://creativecommons.org/ns#"
   xmlns:rdf="http://www.w3.org/1999/02/22-rdf-syntax-ns#"
   xmlns:svg="http://www.w3.org/2000/svg"
   xmlns="http://www.w3.org/2000/svg"
   xmlns:xlink="http://www.w3.org/1999/xlink"
   xmlns:sodipodi="http://sodipodi.sourceforge.net/DTD/sodipodi-0.dtd"
   xmlns:inkscape="http://www.inkscape.org/namespaces/inkscape"
   width="42.575237mm"
   height="42.575237mm"
   viewBox="0 0 160.91428 160.91428"
   version="1.1"
   id="svg927"
   sodipodi:docname="logo ONE FORMAT.svg"
   inkscape:version="0.92.3 (2405546, 2018-03-11)">
  <defs
     id="defs921">
    <linearGradient
       inkscape:collect="always"
       id="linearGradient8205">
      <stop
         style="stop-color:#5abba1;stop-opacity:1;"
         offset="0"
         id="stop8201" />
      <stop
         style="stop-color:#5abba1;stop-opacity:0;"
         offset="1"
         id="stop8203" />
    </linearGradient>
    <linearGradient
       inkscape:collect="always"
       id="linearGradient7143">
      <stop
         style="stop-color:#f10000;stop-opacity:1;"
         offset="0"
         id="stop7139" />
      <stop
         style="stop-color:#f10000;stop-opacity:0;"
         offset="1"
         id="stop7141" />
    </linearGradient>
    <linearGradient
       id="linearGradient7016"
       osb:paint="solid">
      <stop
         style="stop-color:#000000;stop-opacity:1;"
         offset="0"
         id="stop7014" />
    </linearGradient>
    <radialGradient
       inkscape:collect="always"
       xlink:href="#linearGradient7143"
       id="radialGradient7145"
       cx="368.57129"
       cy="696.80469"
       fx="368.57129"
       fy="696.80469"
       r="208.91388"
       gradientTransform="matrix(1,0,0,1.4034491,0,-281.12522)"
       gradientUnits="userSpaceOnUse" />
    <radialGradient
       inkscape:collect="always"
       xlink:href="#linearGradient7143"
       id="radialGradient7920"
       gradientUnits="userSpaceOnUse"
       gradientTransform="matrix(1,0,0,1.4034491,0,-281.12522)"
       cx="368.57129"
       cy="696.80469"
       fx="368.57129"
       fy="696.80469"
       r="208.91388" />
    <radialGradient
       inkscape:collect="always"
       xlink:href="#linearGradient8205"
       id="radialGradient8207"
       cx="585.62366"
       cy="886.08197"
       fx="585.62366"
       fy="886.08197"
       r="67.823524"
       gradientTransform="matrix(1,0,0,0.39995281,0,531.69098)"
       gradientUnits="userSpaceOnUse" />
    <radialGradient
       inkscape:collect="always"
       xlink:href="#linearGradient7143"
       id="radialGradient8577"
       gradientUnits="userSpaceOnUse"
       gradientTransform="matrix(1,0,0,1.4034491,0,-281.12522)"
       cx="368.57129"
       cy="696.80469"
       fx="368.57129"
       fy="696.80469"
       r="208.91388" />
  </defs>
  <sodipodi:namedview
     id="base"
     pagecolor="#ffffff"
     bordercolor="#666666"
     borderopacity="1.0"
     inkscape:pageopacity="0.0"
     inkscape:pageshadow="2"
     inkscape:zoom="3.959798"
     inkscape:cx="71.748401"
     inkscape:cy="78.389747"
     inkscape:document-units="px"
     inkscape:current-layer="layer1"
     showgrid="false"
     inkscape:window-width="1600"
     inkscape:window-height="838"
     inkscape:window-x="-8"
     inkscape:window-y="-8"
     inkscape:window-maximized="1">
    <inkscape:grid
       type="xygrid"
       id="grid8579"
       originx="-233.75677"
       originy="-184.92538" />
  </sodipodi:namedview>
  <metadata
     id="metadata924">
    <rdf:RDF>
      <cc:Work
         rdf:about="">
        <dc:format>image/svg+xml</dc:format>
        <dc:type
           rdf:resource="http://purl.org/dc/dcmitype/StillImage" />
        <dc:title></dc:title>
      </cc:Work>
    </rdf:RDF>
  </metadata>
  <g
     inkscape:label="Layer 1"
     inkscape:groupmode="layer"
     id="layer1"
     transform="translate(-233.75676,-776.68002)">
    <g
       id="g7086"
       style="stroke:url(#radialGradient7145);stroke-width:6.4000001;stroke-miterlimit:4;stroke-dasharray:none;stroke-opacity:1"
       transform="rotate(0.82980571,368.57129,696.80469)">
      <g
         id="g7918"
         style="stroke:url(#radialGradient7920)"
         transform="translate(-877.39907,-405.90721)">
        <g
           inkscape:export-filename="C:\Users\Caro\Desktop\g8237.png"
           inkscape:export-xdpi="96"
           inkscape:export-ydpi="96"
           id="g8237"
           style="stroke:url(#radialGradient8577)"
           transform="translate(600.4301,419.91984)">
          <circle
             style="opacity:1;fill:#333333;fill-opacity:1;fill-rule:nonzero;stroke:none;stroke-width:10;stroke-miterlimit:4;stroke-dasharray:none;stroke-dashoffset:0;stroke-opacity:1;"
             id="path7908"
             cx="581.22675"
             cy="852.40186"
             r="78.571426"
             transform="rotate(-0.82980571)" />
          <g
             id="g7382"
             style="fill:#008000;stroke:#020202;stroke-width:2.49775338;stroke-miterlimit:4;stroke-dasharray:none;stroke-opacity:1"
             transform="matrix(0.79906395,4.8018749e-5,4.8018749e-5,0.80237859,438.86505,119.49808)">
            <path
               style="opacity:0.83800001;fill:#cccccc;fill-opacity:1;stroke:#020202;stroke-width:0;stroke-miterlimit:4;stroke-dasharray:none;stroke-dashoffset:0;stroke-opacity:1"
               d="m 185.78049,826.93708 c -7.86199,19.67325 -6.16081,41.88504 4.58802,59.90451 1.45811,2.44441 2.85593,4.71121 3.10626,5.03733 0.72957,0.95048 4.01962,-2.80698 7.91336,-9.03762 3.78613,-6.05843 5.23611,-10.00446 6.22569,-16.9428 2.19515,-15.39118 -4.27845,-31.48478 -16.56796,-41.18846 l -3.01253,-2.37869 -0.56805,0.90568 c -0.31245,0.49812 -1.07059,2.16315 -1.68478,3.70006 z"
               id="path5298-2-5-3-6-1"
               inkscape:connector-curvature="0" />
            <path
               style="opacity:0.83800001;fill:#cccccc;fill-opacity:1;stroke:#020202;stroke-width:0;stroke-miterlimit:4;stroke-dasharray:none;stroke-dashoffset:0;stroke-opacity:1"
               d="m 242.927,872.27986 c -20.48665,5.66447 -37.22068,20.44902 -45.13116,39.87347 -1.07309,2.63499 -2.04061,5.11474 -2.15003,5.51054 -0.31894,1.15355 4.67533,1.49011 12.01244,0.80949 7.13431,-0.6618 11.16672,-1.89867 17.31367,-5.31065 13.63565,-7.56875 22.59118,-22.43759 22.91992,-38.05395 l 0.0806,-3.82806 -1.06776,0.0973 c -0.58727,0.0535 -2.37723,0.45935 -3.97768,0.90187 z"
               id="path5298-2-5-3-6"
               inkscape:connector-curvature="0" />
            <path
               style="opacity:0.83800001;fill:#cccccc;fill-opacity:1;stroke:#020202;stroke-width:0;stroke-miterlimit:4;stroke-dasharray:none;stroke-dashoffset:0;stroke-opacity:1"
               d="m 141.93832,872.94339 c 20.64211,5.06877 37.7973,19.36247 46.26703,38.54967 1.14895,2.60281 2.18788,5.0535 2.30872,5.44596 0.35221,1.14383 -4.63021,1.62489 -11.98396,1.15705 -7.15048,-0.4549 -11.21702,-1.57447 -17.46021,-4.80699 -13.84913,-7.17066 -23.23153,-21.7739 -24.01241,-37.37419 l -0.19143,-3.82412 1.07013,0.0663 c 0.58857,0.0365 2.38953,0.39031 4.00213,0.78629 z"
               id="path5298-2-5-3"
               inkscape:connector-curvature="0" />
            <path
               style="opacity:1;fill:#008000;fill-opacity:1;stroke:#020202;stroke-width:0;stroke-miterlimit:4;stroke-dasharray:none;stroke-dashoffset:0;stroke-opacity:1"
               d="m 136.86606,872.09077 c 20.64211,5.06877 37.7973,19.36247 46.26703,38.54967 1.14895,2.60281 2.18788,5.0535 2.30872,5.44596 0.35221,1.14383 -4.63021,1.62489 -11.98396,1.15705 -7.15048,-0.4549 -11.21702,-1.57447 -17.46021,-4.80699 -13.84913,-7.17066 -23.23153,-21.7739 -24.01241,-37.37419 l -0.19143,-3.82412 1.07013,0.0663 c 0.58857,0.0365 2.38953,0.39031 4.00213,0.78629 z"
               id="path5298-2-5"
               inkscape:connector-curvature="0" />
            <path
               style="opacity:0.83800001;fill:#008000;fill-opacity:1;stroke:#020202;stroke-width:0;stroke-miterlimit:4;stroke-dasharray:none;stroke-dashoffset:0;stroke-opacity:1"
               d="m 243.52096,869.45655 c -20.48665,5.66442 -37.22067,20.44881 -45.13116,39.87305 -1.0731,2.63496 -2.04061,5.11469 -2.15004,5.51048 -0.31893,1.15354 4.67533,1.49009 12.01245,0.80948 7.1343,-0.6618 11.16671,-1.89865 17.31366,-5.3106 13.63565,-7.56866 22.59119,-22.43735 22.91993,-38.05354 l 0.0806,-3.82802 -1.06776,0.0973 c -0.58727,0.0535 -2.37722,0.45935 -3.97768,0.90186 z"
               id="path5298-2-5-9"
               inkscape:connector-curvature="0" />
            <path
               style="opacity:1;fill:#008000;fill-opacity:1;stroke:#020202;stroke-width:0;stroke-miterlimit:4;stroke-dasharray:none;stroke-dashoffset:0;stroke-opacity:1"
               d="m 191.0903,827.63185 c -9.87378,18.82279 -10.52654,41.14283 -1.7605,60.19647 1.18914,2.5847 2.33719,4.98621 2.5512,5.33668 0.62372,1.02145 4.28405,-2.39292 8.80399,-8.21243 4.395,-5.65864 6.24949,-9.44692 7.96251,-16.26543 3.79993,-15.12539 -0.92721,-31.82683 -12.09825,-42.74411 l -2.73835,-2.67617 -0.65906,0.84571 c -0.36249,0.46513 -1.29016,2.04882 -2.06153,3.51929 z"
               id="path5298-2-5-9-3"
               inkscape:connector-curvature="0" />
          </g>
          <path
             sodipodi:nodetypes="ccccccccccccccccccccccccccc"
             style="opacity:0.669;fill:#008000;fill-opacity:1;fill-rule:nonzero;stroke:none;stroke-width:10;stroke-miterlimit:4;stroke-dasharray:none;stroke-dashoffset:0;stroke-opacity:1"
             id="path7906"
             d="m 625.76216,885.07553 c -3.9042,-1.96731 -8.25013,-2.83677 -12.37509,-4.21929 -4.85103,-1.53609 -9.82164,-2.75745 -14.84694,-3.56391 -4.27317,-0.61488 -8.59162,-0.71522 -12.90107,-0.71879 -4.39663,-0.31236 -8.35897,1.49249 -12.46645,2.71571 -2.52545,0.7306 -5.18161,1.09028 -7.59955,2.1745 -0.4266,0.19128 -1.60958,0.95204 -1.20664,0.71494 5.61204,-3.30224 11.22264,-6.60692 16.83395,-9.91037 -3.15117,1.90683 -5.33495,4.83963 -7.58572,7.67224 -2.41789,2.87224 -3.90589,6.34164 -6.20196,9.28957 -8.20566,7.22538 -14.33355,10.54458 -25.19765,12.58064 -1.32225,0.14301 1.32223,-0.14302 0,0 l 9.03842,-8.03705 v 0 c 1.33681,-0.24619 2.6736,-0.49237 4.01041,-0.73856 8.66437,-2.82824 4.02537,-1.55454 -13.04883,8.77561 -0.5139,0.31091 0.9955,-0.67241 1.49873,-1.00031 2.27678,-1.48355 2.80454,-0.43171 4.97317,-2.14364 0.46681,-0.36848 -0.4669,0.36839 0,0 2.9052,-2.47159 3.37242,-7.27522 5.72761,-10.22037 2.28364,-2.86199 4.29029,-5.96444 7.19133,-8.241 16.30039,-9.71692 15.12459,-10.73747 27.95888,-13.93625 4.22141,-1.34511 8.43319,-2.59363 12.93015,-2.25566 4.34866,0.0804 8.69561,0.32871 12.98906,1.07117 5.07264,0.9272 10.08607,2.18851 14.98423,3.80604 4.36966,1.26626 8.83228,2.41061 12.94016,4.40135 z"
             inkscape:connector-curvature="0" />
          <path
             sodipodi:nodetypes="ccccccccccccccccccccccccccc"
             style="opacity:0.669;fill:#f2f2f2;fill-opacity:1;fill-rule:nonzero;stroke:url(#radialGradient8207);stroke-width:10;stroke-miterlimit:4;stroke-dasharray:none;stroke-dashoffset:0;stroke-opacity:1"
             id="path7906-9"
             d="m 625.76216,885.07553 c -3.9042,-1.96731 -8.25013,-2.83677 -12.37509,-4.21929 -4.85103,-1.53609 -9.82164,-2.75745 -14.84694,-3.56391 -4.27317,-0.61488 -8.59162,-0.71522 -12.90107,-0.71879 -4.39663,-0.31236 -8.35897,1.49249 -12.46645,2.71571 -2.52545,0.7306 -5.18161,1.09028 -7.59955,2.1745 -0.4266,0.19128 -1.60958,0.95204 -1.20664,0.71494 5.61204,-3.30224 11.22264,-6.60692 16.83395,-9.91037 -3.15117,1.90683 -5.33495,4.83963 -7.58572,7.67224 -2.41789,2.87224 -3.90589,6.34164 -6.20196,9.28957 -8.20566,7.22538 -6.45638,8.51682 -17.32048,10.55288 -1.32225,0.14301 -6.55494,1.88474 -7.87717,2.02776 l 9.03842,-8.03705 v 0 c 1.33681,-0.24619 2.6736,-0.49237 4.01041,-0.73856 8.66437,-2.82824 4.02537,-1.55454 -13.04883,8.77561 -0.5139,0.31091 -0.50323,0.3279 0,0 2.27678,-1.48355 2.30348,-1.40306 4.47211,-3.11499 0.46681,-0.36848 0.93379,-0.73676 1.40069,-1.10515 2.9052,-2.47159 3.97152,-6.19903 6.32671,-9.14418 2.28364,-2.86199 4.29029,-5.96444 7.19133,-8.241 16.30039,-9.71692 15.12459,-10.73747 27.95888,-13.93625 4.22141,-1.34511 8.43319,-2.59363 12.93015,-2.25566 4.34866,0.0804 8.69561,0.32871 12.98906,1.07117 5.07264,0.9272 10.08607,2.18851 14.98423,3.80604 4.36967,1.26626 8.83228,2.41061 12.94016,4.40135 z"
             inkscape:connector-curvature="0" />
        </g>
      </g>
    </g>
  </g>
</svg>
